<svg xmlns="http://www.w3.org/2000/svg" style="display:none;">

  <symbol id="icon-archive" viewBox="0 0 24 24">
    <path fill="currentColor" d="M20 21H4V10H6V19H18V10H20V21M3 3H21V9H3V3M9.5 11H14.5C14.78 11 15 11.22 15 11.5V13H9V11.5C9 11.22 9.22 11 9.5 11M5 5V7H19V5H5Z" />
  </symbol>

  <symbol id="icon-star" viewBox="0 0 24 24">
    <path fill="currentColor" d="M12,15.39L8.24,17.66L9.23,13.38L5.91,10.5L10.29,10.13L12,6.09L13.71,10.13L18.09,10.5L14.77,13.38L15.76,17.66M22,9.24L14.81,8.63L12,2L9.19,8.63L2,9.24L7.45,13.97L5.82,21L12,17.27L18.18,21L16.54,13.97L22,9.24Z" />
  </symbol>

  <symbol id="icon-calendar" viewBox="0 0 24 24">
    <path fill="currentColor" d="M19 3H18V1H16V3H8V1H6V3H5C3.89 3 3 3.9 3 5V19C3 20.11 3.9 21 5 21H19C20.11 21 21 20.11 21 19V5C21 3.9 20.11 3 19 3M19 19H5V9H19V19M19 7H5V5H19V7Z" />
  </symbol>

  <symbol id="icon-file" viewBox="0 0 24 24">
    <path fill="currentColor" d="M23.5 17L18.5 22L15 18.5L16.5 17L18.5 19L22 15.5L23.5 17M13.09 20H6V4H13V9H18V13.09C18.33 13.04 18.66 13 19 13S19.67 13.04 20 13.09V8L14 2H6C4.89 2 4 2.9 4 4V20C4 21.11 4.89 22 6 22H13.81C13.46 21.39 13.21 20.72 13.09 20Z" />
  </symbol>

  <symbol id="icon-file-edit" viewBox="0 0 24 24">
    <path fill="currentColor" d="M10 20H6V4H13V9H18V12.1L20 10.1V8L14 2H6C4.9 2 4 2.9 4 4V20C4 21.1 4.9 22 6 22H10V20M20.2 13C20.3 13 20.5 13.1 20.6 13.2L21.9 14.5C22.1 14.7 22.1 15.1 21.9 15.3L20.9 16.3L18.8 14.2L19.8 13.2C19.9 13.1 20 13 20.2 13M20.2 16.9L14.1 23H12V20.9L18.1 14.8L20.2 16.9Z" />
  </symbol>

  <symbol id="icon-trash" viewBox="0 0 24 24">
    <path fill="currentColor" d="M9,3V4H4V6H5V19A2,2 0 0,0 7,21H17A2,2 0 0,0 19,19V6H20V4H15V3H9M7,6H17V19H7V6M9,8V17H11V8H9M13,8V17H15V8H13Z" />
  </symbol>

  <symbol id="icon-folder" viewBox="0 0 24 24">
    <path fill="currentColor" d="M13 19C13 19.34 13.04 19.67 13.09 20H4C2.9 20 2 19.11 2 18V6C2 4.89 2.89 4 4 4H10L12 6H20C21.1 6 22 6.89 22 8V13.81C21.39 13.46 20.72 13.22 20 13.09V8H4V18H13.09C13.04 18.33 13 18.66 13 19M20 18V15H18V18H15V20H18V23H20V20H23V18H20Z" />
  </symbol>

  <symbol id="icon-close" viewBox="0 0 24 24">
    <path fill="currentColor" d="M19,6.41L17.59,5L12,10.59L6.41,5L5,6.41L10.59,12L5,17.59L6.41,19L12,13.41L17.59,19L19,17.59L13.41,12L19,6.41Z" />
  </symbol>

  <symbol id="icon-plus" viewBox="0 0 24 24">
    <path fill="currentColor" d="M19,13H13V19H11V13H5V11H11V5H13V11H19V13Z" />
  </symbol>

  <symbol id="icon-github" viewBox="0 0 24 24">
    <path fill="currentColor" d="M12,2A10,10 0 0,0 2,12C2,16.42 4.87,20.17 8.84,21.5C9.34,21.58 9.5,21.27 9.5,21C9.5,20.77 9.5,20.14 9.5,19.31C6.73,19.91 6.14,17.97 6.14,17.97C5.68,16.81 5.03,16.5 5.03,16.5C4.12,15.88 5.1,15.9 5.1,15.9C6.1,15.97 6.63,16.93 6.63,16.93C7.5,18.45 8.97,18 9.54,17.76C9.63,17.11 9.89,16.67 10.17,16.42C7.95,16.17 5.62,15.31 5.62,11.5C5.62,10.39 6,9.5 6.65,8.79C6.55,8.54 6.2,7.5 6.75,6.15C6.75,6.15 7.59,5.88 9.5,7.17C10.29,6.95 11.15,6.84 12,6.84C12.85,6.84 13.71,6.95 14.5,7.17C16.41,5.88 17.25,6.15 17.25,6.15C17.8,7.5 17.45,8.54 17.35,8.79C18,9.5 18.38,10.39 18.38,11.5C18.38,15.32 16.04,16.16 13.81,16.41C14.17,16.72 14.5,17.33 14.5,18.26C14.5,19.6 14.5,20.68 14.5,21C14.5,21.27 14.66,21.59 15.17,21.5C19.14,20.16 22,16.42 22,12A10,10 0 0,0 12,2Z" />
  </symbol>

  <symbol id="icon-menu" viewBox="0 0 24 24">
    <path fill="currentColor"d="M3,6H21V8H3V6M3,11H21V13H3V11M3,16H21V18H3V16Z" />
  </symbol>
</svg>
